<?xml version="1.0" encoding="utf-8"?>
<!-- Generator: Adobe Illustrator 12.0.0, SVG Export Plug-In . SVG Version: 6.00 Build 51448)  -->
<!DOCTYPE svg PUBLIC "-//W3C//DTD SVG 1.1//EN" "http://www.w3.org/Graphics/SVG/1.1/DTD/svg11.dtd" [
	<!ENTITY ns_svg "http://www.w3.org/2000/svg">
	<!ENTITY ns_xlink "http://www.w3.org/1999/xlink">
]>
<svg  version="1.1" xmlns="&ns_svg;" xmlns:xlink="&ns_xlink;" width="455.746" height="536.18" viewBox="0 0 455.746 536.18"
	 overflow="visible" enable-background="new 0 0 455.746 536.18" xml:space="preserve">
<g id="Layer_5">
	<circle fill="#B3B2B2" stroke="#000000" stroke-width="3" stroke-linejoin="round" cx="226.597" cy="302.783" r="94"/>
	<g>
		
			<line fill="none" stroke="#666667" stroke-width="5" stroke-linecap="round" stroke-linejoin="round" x1="226.598" y1="213.117" x2="226.598" y2="391.783"/>
		
			<line fill="none" stroke="#666667" stroke-width="5" stroke-linecap="round" stroke-linejoin="round" x1="137.264" y1="302.45" x2="315.931" y2="302.45"/>
		
			<line fill="none" stroke="#666667" stroke-width="5" stroke-linecap="round" stroke-linejoin="round" x1="163.429" y1="365.618" x2="289.766" y2="239.282"/>
		
			<line fill="none" stroke="#666667" stroke-width="5" stroke-linecap="round" stroke-linejoin="round" x1="289.766" y1="365.619" x2="163.43" y2="239.282"/>
		
			<line fill="none" stroke="#666667" stroke-width="5" stroke-linecap="round" stroke-linejoin="round" x1="192.411" y1="219.917" x2="260.784" y2="384.983"/>
		
			<line fill="none" stroke="#666667" stroke-width="5" stroke-linecap="round" stroke-linejoin="round" x1="144.064" y1="336.637" x2="309.131" y2="268.264"/>
		
			<line fill="none" stroke="#666667" stroke-width="5" stroke-linecap="round" stroke-linejoin="round" x1="192.411" y1="384.983" x2="260.784" y2="219.917"/>
		
			<line fill="none" stroke="#666667" stroke-width="5" stroke-linecap="round" stroke-linejoin="round" x1="309.131" y1="336.638" x2="144.065" y2="268.264"/>
		
			<line fill="none" stroke="#666667" stroke-width="5" stroke-linecap="round" stroke-linejoin="round" x1="211.729" y1="228.031" x2="241.356" y2="376.979"/>
		
			<line fill="none" stroke="#666667" stroke-width="5" stroke-linecap="round" stroke-linejoin="round" x1="152.068" y1="317.319" x2="301.017" y2="287.691"/>
		
			<line fill="none" stroke="#666667" stroke-width="5" stroke-linecap="round" stroke-linejoin="round" x1="184.356" y1="365.642" x2="268.729" y2="239.369"/>
		
			<line fill="none" stroke="#666667" stroke-width="5" stroke-linecap="round" stroke-linejoin="round" x1="289.679" y1="344.692" x2="163.406" y2="260.319"/>
		
			<line fill="none" stroke="#666667" stroke-width="5" stroke-linecap="round" stroke-linejoin="round" x1="184.356" y1="239.369" x2="268.729" y2="365.642"/>
		
			<line fill="none" stroke="#666667" stroke-width="5" stroke-linecap="round" stroke-linejoin="round" x1="163.406" y1="344.692" x2="289.679" y2="260.319"/>
		
			<line fill="none" stroke="#666667" stroke-width="5" stroke-linecap="round" stroke-linejoin="round" x1="211.729" y1="376.979" x2="241.356" y2="228.031"/>
		
			<line fill="none" stroke="#666667" stroke-width="5" stroke-linecap="round" stroke-linejoin="round" x1="301.017" y1="317.32" x2="152.069" y2="287.691"/>
	</g>
	<g>
		
			<line fill="none" stroke="#000000" stroke-width="3" stroke-linecap="round" stroke-linejoin="round" x1="226.598" y1="213.117" x2="226.598" y2="391.783"/>
		
			<line fill="none" stroke="#000000" stroke-width="3" stroke-linecap="round" stroke-linejoin="round" x1="137.264" y1="302.45" x2="315.931" y2="302.45"/>
		
			<line fill="none" stroke="#000000" stroke-width="3" stroke-linecap="round" stroke-linejoin="round" x1="163.429" y1="365.618" x2="289.766" y2="239.282"/>
		
			<line fill="none" stroke="#000000" stroke-width="3" stroke-linecap="round" stroke-linejoin="round" x1="289.766" y1="365.619" x2="163.43" y2="239.282"/>
		
			<line fill="none" stroke="#000000" stroke-width="3" stroke-linecap="round" stroke-linejoin="round" x1="192.411" y1="219.917" x2="260.784" y2="384.983"/>
		
			<line fill="none" stroke="#000000" stroke-width="3" stroke-linecap="round" stroke-linejoin="round" x1="144.064" y1="336.637" x2="309.131" y2="268.264"/>
		
			<line fill="none" stroke="#000000" stroke-width="3" stroke-linecap="round" stroke-linejoin="round" x1="192.411" y1="384.983" x2="260.784" y2="219.917"/>
		
			<line fill="none" stroke="#000000" stroke-width="3" stroke-linecap="round" stroke-linejoin="round" x1="309.131" y1="336.638" x2="144.065" y2="268.264"/>
		
			<line fill="none" stroke="#000000" stroke-width="3" stroke-linecap="round" stroke-linejoin="round" x1="211.729" y1="228.031" x2="241.356" y2="376.979"/>
		
			<line fill="none" stroke="#000000" stroke-width="3" stroke-linecap="round" stroke-linejoin="round" x1="152.068" y1="317.319" x2="301.017" y2="287.691"/>
		
			<line fill="none" stroke="#000000" stroke-width="3" stroke-linecap="round" stroke-linejoin="round" x1="184.356" y1="365.642" x2="268.729" y2="239.369"/>
		
			<line fill="none" stroke="#000000" stroke-width="3" stroke-linecap="round" stroke-linejoin="round" x1="289.679" y1="344.692" x2="163.406" y2="260.319"/>
		
			<line fill="none" stroke="#000000" stroke-width="3" stroke-linecap="round" stroke-linejoin="round" x1="184.356" y1="239.369" x2="268.729" y2="365.642"/>
		
			<line fill="none" stroke="#000000" stroke-width="3" stroke-linecap="round" stroke-linejoin="round" x1="163.406" y1="344.692" x2="289.679" y2="260.319"/>
		
			<line fill="none" stroke="#000000" stroke-width="3" stroke-linecap="round" stroke-linejoin="round" x1="211.729" y1="376.979" x2="241.356" y2="228.031"/>
		
			<line fill="none" stroke="#000000" stroke-width="3" stroke-linecap="round" stroke-linejoin="round" x1="301.017" y1="317.32" x2="152.069" y2="287.691"/>
	</g>
	<circle fill="#B3B2B2" stroke="#B3B2B2" cx="226.598" cy="302.616" r="50.29"/>
	<circle fill="#8C8C8C" stroke="#000000" stroke-width="3" stroke-linejoin="round" cx="226.598" cy="302.616" r="47"/>
	<path fill="none" stroke="#B3B2B2" stroke-width="5" stroke-linecap="round" stroke-linejoin="round" d="M206.431,331.533
		c0,0-0.25-8.625,5.625-16s7.625-7.25,7.75-10.75s2.5-3.625,2.5-7s0-17.5,0-17.5s-26.25-7-26.25,7s11.375,9.125,11.875,9.125
		s9.5-3.625,9.25-7.625s-9.75-5.375-13.75-3.25s1.625,4.875,4,4.625s8.375-3.25,6.25-4.25"/>
	<path fill="none" stroke="#B3B2B2" stroke-width="5" stroke-linecap="round" stroke-linejoin="round" d="M226.056,320.158
		c0,0-6.25,1.125-8-1.25s-0.958-5.625,1.042-11.5"/>
	<path stroke="#B3B2B2" stroke-width="5" stroke-linecap="round" stroke-linejoin="round" d="M226.431,325.283
		c-4,0-13.75-1.5-14.25,0.25s-1.855,8.379,14.625,11.375C229.556,337.408,226.431,325.283,226.431,325.283z"/>
	<path stroke="#B3B2B2" stroke-width="5" stroke-linecap="round" stroke-linejoin="round" d="M217.181,341.033
		c0,0,1.25-4.625,7.375-4.625"/>
	<path fill="none" stroke="#B3B2B2" stroke-width="5" stroke-linecap="round" stroke-linejoin="round" d="M246.563,331.533
		c0,0,0.25-8.625-5.625-16s-7.625-7.25-7.75-10.75s-2.5-3.625-2.5-7s0-17.5,0-17.5s26.25-7,26.25,7s-11.375,9.125-11.875,9.125
		s-9.5-3.625-9.25-7.625s9.75-5.375,13.75-3.25s-1.625,4.875-4,4.625s-8.375-3.25-6.25-4.25"/>
	<path fill="none" stroke="#B3B2B2" stroke-width="5" stroke-linecap="round" stroke-linejoin="round" d="M226.938,320.158
		c0,0,6.25,1.125,8-1.25s0.958-5.625-1.042-11.5"/>
	<path stroke="#B3B2B2" stroke-width="5" stroke-linecap="round" stroke-linejoin="round" d="M226.563,325.283
		c4,0,13.75-1.5,14.25,0.25s1.855,8.379-14.625,11.375C223.438,337.408,226.563,325.283,226.563,325.283z"/>
	<path stroke="#B3B2B2" stroke-width="5" stroke-linecap="round" stroke-linejoin="round" d="M235.813,341.033
		c0,0-1.25-4.625-7.375-4.625"/>
	<path fill="none" stroke="#000000" stroke-width="3" stroke-linecap="round" stroke-linejoin="round" d="M206.431,331.533
		c0,0-0.25-8.625,5.625-16s7.625-7.25,7.75-10.75s2.5-3.625,2.5-7s0-17.5,0-17.5s-26.25-7-26.25,7s11.375,9.125,11.875,9.125
		s9.5-3.625,9.25-7.625s-9.75-5.375-13.75-3.25s1.625,4.875,4,4.625s8.375-3.25,6.25-4.25"/>
	<path fill="none" stroke="#000000" stroke-width="3" stroke-linecap="round" stroke-linejoin="round" d="M226.056,320.158
		c0,0-6.25,1.125-8-1.25s-0.958-5.625,1.042-11.5"/>
	<path stroke="#000000" stroke-width="3" stroke-linecap="round" stroke-linejoin="round" d="M226.431,325.283
		c-4,0-13.75-1.5-14.25,0.25s-1.855,8.379,14.625,11.375C229.556,337.408,226.431,325.283,226.431,325.283z"/>
	<path stroke="#000000" stroke-width="3" stroke-linecap="round" stroke-linejoin="round" d="M217.181,341.033
		c0,0,1.25-4.625,7.375-4.625"/>
	<path fill="none" stroke="#000000" stroke-width="3" stroke-linecap="round" stroke-linejoin="round" d="M246.563,331.533
		c0,0,0.25-8.625-5.625-16s-7.625-7.25-7.75-10.75s-2.5-3.625-2.5-7s0-17.5,0-17.5s26.25-7,26.25,7s-11.375,9.125-11.875,9.125
		s-9.5-3.625-9.25-7.625s9.75-5.375,13.75-3.25s-1.625,4.875-4,4.625s-8.375-3.25-6.25-4.25"/>
	<path fill="none" stroke="#000000" stroke-width="3" stroke-linecap="round" stroke-linejoin="round" d="M226.938,320.158
		c0,0,6.25,1.125,8-1.25s0.958-5.625-1.042-11.5"/>
	<path stroke="#000000" stroke-width="3" stroke-linecap="round" stroke-linejoin="round" d="M226.563,325.283
		c4,0,13.75-1.5,14.25,0.25s1.855,8.379-14.625,11.375C223.438,337.408,226.563,325.283,226.563,325.283z"/>
	<path stroke="#000000" stroke-width="3" stroke-linecap="round" stroke-linejoin="round" d="M235.813,341.033
		c0,0-1.25-4.625-7.375-4.625"/>
</g>
<g id="Square">
	<path id="outline_2_" fill="#666667" stroke="#000000" stroke-width="3" stroke-linecap="round" d="M228.288,534.68
		l225.423-225.423c0,0-4.896-5.807-16.729-6.14c-11.833-0.333-26.833,12.001-36.333,12.167s-26.088-6.28-26.088-6.28
		L228.035,455.528h-0.324L81.186,309.004c0,0-16.588,6.446-26.088,6.28s-24.5-12.5-36.333-12.167s-16.729,6.14-16.729,6.14
		L227.458,534.68H228.288z"/>
	<path fill="#B3B2B2" stroke="#000000" stroke-width="3" stroke-linecap="round" d="M418.603,314.24
		c-6.376,3.059-12.397,5.947-17.867,6.043c-7.935,0.139-19.371-3.523-24.9-5.482c-4.385,4.385-145.729,145.728-145.729,145.728
		h-4.467c0,0-141.344-141.343-145.728-145.728c-5.529,1.959-16.966,5.621-24.901,5.482c-5.469-0.096-11.491-2.984-17.866-6.043
		c-6.426-3.083-13.07-6.271-18.239-6.125c-4.029,0.113-6.965,0.957-9.065,1.876c8.103,8.103,212.081,212.08,218.033,218.032
		c5.953-5.952,209.93-209.93,218.033-218.032c-2.1-0.919-5.036-1.763-9.065-1.876C431.672,307.97,425.027,311.157,418.603,314.24z"
		/>
	<g id="left_swirls_and_ticks">
		<g id="Ticks">
			
				<line fill="none" stroke="#000000" stroke-width="3" stroke-linecap="round" x1="45.952" y1="344.928" x2="53.931" y2="336.949"/>
			
				<line fill="none" stroke="#000000" stroke-width="3" stroke-linecap="round" x1="147.952" y1="446.928" x2="155.931" y2="438.949"/>
			
				<line fill="none" stroke="#000000" stroke-width="3" stroke-linecap="round" x1="164.952" y1="463.928" x2="178.013" y2="450.867"/>
			
				<line fill="none" stroke="#000000" stroke-width="3" stroke-linecap="round" x1="198.952" y1="497.928" x2="212.013" y2="484.867"/>
			
				<line fill="none" stroke="#000000" stroke-width="3" stroke-linecap="round" x1="181.952" y1="480.928" x2="189.931" y2="472.949"/>
			
				<line fill="none" stroke="#000000" stroke-width="3" stroke-linecap="round" x1="215.952" y1="514.928" x2="223.931" y2="506.949"/>
			
				<line fill="none" stroke="#000000" stroke-width="3" stroke-linecap="round" x1="62.952" y1="361.928" x2="76.013" y2="348.867"/>
			
				<line fill="none" stroke="#000000" stroke-width="3" stroke-linecap="round" x1="28.952" y1="327.928" x2="36.931" y2="319.949"/>
			
				<line fill="none" stroke="#000000" stroke-width="3" stroke-linecap="round" x1="79.952" y1="378.928" x2="87.931" y2="370.949"/>
			
				<line fill="none" stroke="#000000" stroke-width="3" stroke-linecap="round" x1="79.952" y1="378.928" x2="87.931" y2="370.949"/>
			
				<line fill="none" stroke="#000000" stroke-width="3" stroke-linecap="round" x1="96.952" y1="395.928" x2="110.013" y2="382.867"/>
			
				<line fill="none" stroke="#000000" stroke-width="3" stroke-linecap="round" x1="130.952" y1="429.928" x2="144.013" y2="416.867"/>
			
				<line fill="none" stroke="#000000" stroke-width="3" stroke-linecap="round" x1="113.952" y1="412.928" x2="121.931" y2="404.949"/>
		</g>
	</g>
	<g id="left_swirls_and_ticks_1_">
		<g id="Ticks_1_">
			
				<line fill="none" stroke="#000000" stroke-width="3" stroke-linecap="round" x1="409.931" y1="344.928" x2="401.952" y2="336.949"/>
			
				<line fill="none" stroke="#000000" stroke-width="3" stroke-linecap="round" x1="307.931" y1="446.928" x2="299.952" y2="438.949"/>
			
				<line fill="none" stroke="#000000" stroke-width="3" stroke-linecap="round" x1="290.931" y1="463.928" x2="277.87" y2="450.867"/>
			
				<line fill="none" stroke="#000000" stroke-width="3" stroke-linecap="round" x1="256.931" y1="497.928" x2="243.87" y2="484.867"/>
			
				<line fill="none" stroke="#000000" stroke-width="3" stroke-linecap="round" x1="273.931" y1="480.928" x2="265.952" y2="472.949"/>
			
				<line fill="none" stroke="#000000" stroke-width="3" stroke-linecap="round" x1="239.931" y1="514.928" x2="231.952" y2="506.949"/>
			
				<line fill="none" stroke="#000000" stroke-width="3" stroke-linecap="round" x1="392.931" y1="361.928" x2="379.87" y2="348.867"/>
			
				<line fill="none" stroke="#000000" stroke-width="3" stroke-linecap="round" x1="426.931" y1="327.928" x2="418.952" y2="319.949"/>
			
				<line fill="none" stroke="#000000" stroke-width="3" stroke-linecap="round" x1="375.931" y1="378.928" x2="367.952" y2="370.949"/>
			
				<line fill="none" stroke="#000000" stroke-width="3" stroke-linecap="round" x1="375.931" y1="378.928" x2="367.952" y2="370.949"/>
			
				<line fill="none" stroke="#000000" stroke-width="3" stroke-linecap="round" x1="358.931" y1="395.928" x2="345.87" y2="382.867"/>
			
				<line fill="none" stroke="#000000" stroke-width="3" stroke-linecap="round" x1="324.931" y1="429.928" x2="311.87" y2="416.867"/>
			
				<line fill="none" stroke="#000000" stroke-width="3" stroke-linecap="round" x1="341.931" y1="412.928" x2="333.952" y2="404.949"/>
		</g>
	</g>
</g>
<g id="compasses">
	<g id="left_compass">
		<path fill="#B3B2B2" stroke="#000000" stroke-width="4" stroke-linecap="round" stroke-linejoin="round" d="M10.974,520.441
			L196.629,39.19l52.201,20.106l-57.479,148.455c0,0-16.087,5.699-27.42,13.032s-22,18.667-22,18.667L10.974,520.441z"/>
		<path fill="#8C8C8C" stroke="#000000" stroke-width="3" stroke-linecap="round" stroke-linejoin="round" d="M130.55,235.165
			l70.566-182.51l35.496,13.672l-52.432,132.457c0,0-18,5-28,11.5S130.55,235.165,130.55,235.165z"/>
	</g>
	<g id="right_compass">
		<path fill="#B3B2B2" stroke="#000000" stroke-width="4" stroke-linecap="round" stroke-linejoin="round" d="M444.83,520.441
			L259.176,39.19l-52.201,20.106l57.479,148.455c0,0,16.087,5.699,27.42,13.032s22,18.667,22,18.667L444.83,520.441z"/>
		<path fill="#8C8C8C" stroke="#000000" stroke-width="3" stroke-linecap="round" stroke-linejoin="round" d="M325.255,235.165
			l-70.566-182.51l-35.496,13.672l52.432,132.457c0,0,18,5,28,11.5S325.255,235.165,325.255,235.165z"/>
	</g>
</g>
<g id="knob">
	<circle id="outer_circle" fill="#8C8C8C" stroke="#000000" stroke-width="4" cx="227.931" cy="39.117" r="37.117"/>
	
		<circle id="outer_circle_2_" fill="#B3B2B2" stroke="#000000" stroke-width="3" stroke-linecap="round" stroke-linejoin="round" cx="227.931" cy="39.117" r="27.838"/>
	
		<circle id="outer_circle_3_" fill="#8C8C8C" stroke="#000000" stroke-width="3" stroke-linecap="round" stroke-linejoin="round" cx="227.931" cy="39.117" r="13.919"/>
</g>
</svg>
